<svg width="34" height="35" viewBox="0 0 34 35" fill="none" xmlns="http://www.w3.org/2000/svg">
<rect x="0.5" y="1" width="33" height="33" rx="16.5" stroke="#96A0B5" stroke-dasharray="4 4"/>
<path d="M15.25 23.3332H18.75C21.6666 23.3332 22.8333 22.1665 22.8333 19.2498V15.7498C22.8333 12.8332 21.6666 11.6665 18.75 11.6665H15.25C12.3333 11.6665 11.1666 12.8332 11.1666 15.7498V19.2498C11.1666 22.1665 12.3333 23.3332 15.25 23.3332Z" stroke="#96A0B5" stroke-width="1.5" stroke-linecap="round" stroke-linejoin="round"/>
<path d="M17 19.5418C18.1276 19.5418 19.0417 18.6277 19.0417 17.5002C19.0417 16.3726 18.1276 15.4585 17 15.4585C15.8725 15.4585 14.9584 16.3726 14.9584 17.5002C14.9584 18.6277 15.8725 19.5418 17 19.5418Z" stroke="#96A0B5" stroke-width="1.5" stroke-linecap="round" stroke-linejoin="round"/>
<path d="M20.2877 14.5832H20.2944" stroke="#96A0B5" stroke-width="2" stroke-linecap="round" stroke-linejoin="round"/>
</svg>
