<svg width="167" height="65" viewBox="0 0 167 65" fill="none" xmlns="http://www.w3.org/2000/svg">
<g clip-path="url(#clip0_1_59)">
<path d="M56.4174 25.9045L50.1366 25.7219L45.3207 25.5757C45.0644 23.895 44.5517 22.3056 43.8375 20.8258C43.7643 20.6797 43.691 20.5518 43.6178 20.4057C43.4896 20.1499 43.3614 19.8941 43.2149 19.6567C42.5557 18.4875 41.75 17.3913 40.7795 16.3683C34.2423 9.46272 23.4752 9.31657 16.3887 15.6741C15.3633 16.6058 14.1181 18.4144 14.1181 18.4144C12.818 20.2412 11.8841 22.3421 11.408 24.5892H11.3897L6.55548 24.443C7.32456 19.9124 9.52193 15.5827 13.1293 12.1848C21.9554 3.85423 35.927 4.25615 44.277 13.0799C46.0715 14.9799 47.4632 17.1173 48.452 19.3826L55.1906 19.5836C53.9454 15.6741 51.8213 11.9838 48.8182 8.80505C38.106 -2.485 20.1792 -2.99652 8.84441 7.69066C2.36217 13.8107 -0.585963 22.2873 0.0915592 30.5448L6.37237 30.7275L11.2066 30.8554C11.7193 34.1985 13.2208 37.4138 15.7112 40.0445C22.2484 46.9501 33.1803 47.2606 40.102 40.7387C41.5486 39.3686 42.7022 37.8157 43.5628 36.135C43.5628 36.1167 43.5811 36.0802 43.5995 36.0619C43.7826 35.6966 43.9657 35.3312 44.1122 34.9475C44.2037 34.7466 44.2953 34.5456 44.3685 34.3264C44.4052 34.2168 44.4418 34.1072 44.4784 33.9976C44.7348 33.2851 44.9545 32.5543 45.1193 31.8053L49.9535 31.9515C49.1844 36.4821 46.9871 40.8118 43.3797 44.2098C34.5536 52.5403 20.582 52.1384 12.232 43.3146C10.4375 41.4147 9.04584 39.2772 8.05702 37.0119L1.31842 36.8109C2.5636 40.7204 4.68772 44.4107 7.69079 47.5895C18.403 58.9161 36.3298 59.4276 47.6646 48.7221C54.1468 42.6021 57.095 34.1255 56.4174 25.868V25.9045ZM26.5698 17.3731C30.0307 16.8433 33.6747 17.9394 36.2566 20.6797C40.4316 25.0825 40.2302 32.0611 35.8171 36.2264C34.7184 37.2677 33.4732 38.0167 32.1365 38.5282C32.1182 38.5282 32.0816 38.5282 32.0633 38.5465C31.7886 38.6561 31.4956 38.7292 31.2209 38.8205C31.0928 38.857 30.9829 38.8753 30.8547 38.9118C30.6533 38.9667 30.4519 39.0032 30.2504 39.0397C30.049 39.0763 29.8293 39.1128 29.6279 39.1311C29.4814 39.1311 29.3532 39.1676 29.2067 39.1859C28.9503 39.2042 28.6757 39.2224 28.4193 39.2224C28.3094 39.2224 28.2179 39.2224 28.108 39.2224C27.8333 39.2224 27.5587 39.2041 27.284 39.1676C27.1924 39.1676 27.1009 39.1676 27.0093 39.1493C26.753 39.1128 26.4966 39.0763 26.2402 39.0215C26.1304 39.0032 26.0205 38.9849 25.9106 38.9667C25.7092 38.9301 25.5078 38.857 25.3064 38.8022C25.1599 38.7657 24.9951 38.7292 24.8486 38.6744C24.7387 38.6378 24.6288 38.583 24.519 38.5465C24.2809 38.4551 24.0429 38.3821 23.8048 38.2724C22.5047 37.7061 21.2779 36.8658 20.2341 35.7696C17.3775 32.737 16.5718 28.4987 17.7804 24.8084C19.0988 21.0633 22.4498 18.1769 26.5515 17.3913L26.5698 17.3731Z" fill="#01737F"/>
<path d="M62.332 35.3317H68.3565C68.4114 37.0673 70.1327 38.3278 72.3667 38.3278C74.7288 38.3278 76.2304 37.1769 76.2304 35.4414C76.2304 33.2308 73.8682 32.7376 71.4511 32.1165C66.4338 30.8559 62.8631 28.7733 62.8814 23.9138C62.8814 19.3284 67.0381 15.766 72.4948 15.7842C77.9516 15.8025 82.09 19.4014 82.09 24.133L76.0656 24.0782C76.0656 22.2879 74.3809 21.2831 72.4948 21.2831C70.5722 21.2831 68.9241 22.2514 68.9241 23.8773C68.9241 25.8503 71.2314 26.3436 73.6485 26.9647C77.2192 27.8781 82.145 29.0839 82.1266 35.35C82.1266 40.0633 77.677 43.8815 72.2751 43.8632C66.5803 43.8632 62.332 39.9903 62.3503 35.3317H62.332Z" fill="#031356"/>
<path d="M84.9649 29.8695C84.9649 22.014 91.3556 15.8574 99.1563 15.8574C106.975 15.8574 113.329 22.0322 113.329 29.8878C113.329 37.5424 106.939 43.8999 99.1379 43.8999C91.319 43.8999 84.9649 37.5241 84.9649 29.8695ZM107.36 29.8878C107.36 24.736 103.697 21.539 99.1746 21.539C94.6883 21.539 91.0626 24.7177 91.0626 29.8695C91.0626 35.0213 94.67 38.2 99.1563 38.2183C103.697 38.2183 107.36 34.8569 107.36 29.8878Z" fill="#031356"/>
<path d="M117.138 32.8292V16.5518H123.144V33.1763C123.126 36.5012 125.342 38.2915 128.583 38.2915C131.824 38.2915 133.948 36.3185 133.948 33.1945V16.57H140.046V32.8657C140.027 39.4242 135.193 43.9365 128.583 43.9365C121.972 43.9365 117.156 39.3876 117.156 32.8474L117.138 32.8292Z" fill="#031356"/>
<path d="M145.832 9.06152H151.82L151.783 43.224H145.795L145.832 9.06152Z" fill="#031356"/>
<path d="M87.2355 60.9443H87.1623V64.5797H86.4481V49.0879H87.1623V56.0483H87.2355C88.1877 53.7829 90.2203 52.157 92.967 52.157C96.5377 52.157 99.376 55.0069 99.376 58.5511C99.376 62.0952 96.5194 64.9634 92.9487 64.9451C90.4034 64.9451 88.1511 63.4836 87.2172 60.9443H87.2355ZM98.7168 58.5328C98.7168 55.3541 96.1532 52.8512 92.967 52.8512C89.7808 52.8512 87.3088 55.354 87.3088 58.5145C87.3088 61.675 89.8357 64.1961 92.967 64.1961C96.1349 64.1961 98.7168 61.6567 98.7168 58.5328Z" fill="#01737F"/>
<path d="M101.775 52.5046H109.026V53.2171H102.471V64.5985H101.756V52.4863L101.775 52.5046Z" fill="#01737F"/>
<path d="M109.246 58.588C109.246 55.0438 112.139 52.2305 115.691 52.2305C119.244 52.2305 122.119 55.0621 122.119 58.6062C122.119 62.1504 119.226 64.9637 115.673 64.9637C112.121 64.9637 109.246 62.059 109.246 58.588ZM121.405 58.588C121.405 55.4092 118.841 52.9247 115.691 52.9247C112.542 52.9247 109.96 55.4092 109.96 58.5697C109.96 61.6388 112.524 64.233 115.673 64.233C118.823 64.233 121.405 61.6388 121.405 58.588Z" fill="#01737F"/>
<path d="M124.518 49.0518H125.232V57.7477H128.967L132.3 52.5411H133.106L129.773 57.7477H133.472V64.6532H132.758V58.4601H125.232V64.635H124.518V49.0518Z" fill="#01737F"/>
<path d="M135.23 58.5329C135.23 54.9888 138.123 52.2119 141.675 52.2119C145.228 52.2119 148.103 54.9888 148.103 58.5329V58.7704H135.944C136.072 61.803 138.581 64.251 141.657 64.251C143.964 64.251 145.96 62.8808 146.876 60.8895H147.645C146.693 63.2827 144.385 64.9635 141.639 64.9635C138.086 64.9635 135.211 62.077 135.211 58.5329H135.23ZM147.37 58.0762C147.15 55.1532 144.66 52.9244 141.675 52.9244C138.672 52.9244 136.182 55.1349 135.962 58.0579H147.37V58.0762Z" fill="#01737F"/>
<path d="M150.501 52.5593H157.753V53.2718H151.197V64.6532H150.483V52.541L150.501 52.5593Z" fill="#01737F"/>
<path d="M158.485 61.6574H159.199C159.199 62.991 160.646 64.3064 162.752 64.3064C164.729 64.3064 166.304 63.1189 166.304 61.6757C166.304 59.7209 164.656 59.2094 162.752 58.7527C160.261 58.1498 158.705 57.3825 158.723 55.446C158.742 53.5096 160.664 52.249 162.825 52.249C164.986 52.249 166.908 53.6557 166.908 55.446H166.194C166.194 54.0394 164.693 52.9615 162.825 52.9615C161.122 52.9615 159.419 53.9297 159.419 55.446C159.419 57.145 161.104 57.5835 162.917 58.0585C164.821 58.57 167 59.0632 167 61.6757C167 63.5208 165.096 65.0188 162.733 65.0188C160.115 65.0188 158.467 63.3747 158.467 61.6757L158.485 61.6574Z" fill="#01737F"/>
</g>
<defs>
<clipPath id="clip0_1_59">
<rect width="167" height="65" fill="white"/>
</clipPath>
</defs>
</svg>
