<svg width="167" height="65" viewBox="0 0 167 65" fill="none" xmlns="http://www.w3.org/2000/svg">
<g clip-path="url(#clip0_2_87)">
<path d="M56.4174 25.905L50.1366 25.7223L45.3207 25.5762C45.0644 23.8955 44.5516 22.3061 43.8375 20.8263C43.7643 20.6802 43.691 20.5523 43.6178 20.4062C43.4896 20.1504 43.3614 19.8946 43.2149 19.6571C42.5557 18.4879 41.75 17.3918 40.7795 16.3688C34.2423 9.46321 23.4752 9.31706 16.3887 15.6746C15.3633 16.6063 14.1181 18.4149 14.1181 18.4149C12.818 20.2417 11.8841 22.3426 11.408 24.5897H11.3897L6.55548 24.4435C7.32456 19.9129 9.52192 15.5832 13.1293 12.1852C21.9554 3.85472 35.927 4.25663 44.277 13.0804C46.0715 14.9804 47.4632 17.1178 48.452 19.3831L55.1906 19.5841C53.9454 15.6746 51.8213 11.9843 48.8182 8.80554C38.106 -2.48451 20.1792 -2.99604 8.8444 7.69115C2.36217 13.8112 -0.58597 22.2878 0.0915515 30.5453L6.37236 30.728L11.2066 30.8558C11.7193 34.199 13.2208 37.4143 15.7112 40.045C22.2484 46.9506 33.1803 47.2611 40.102 40.7392C41.5486 39.3691 42.7022 37.8162 43.5628 36.1355C43.5628 36.1172 43.5811 36.0807 43.5994 36.0624C43.7826 35.697 43.9657 35.3317 44.1122 34.948C44.2037 34.7471 44.2953 34.5461 44.3685 34.3269C44.4052 34.2173 44.4418 34.1077 44.4784 33.9981C44.7348 33.2856 44.9545 32.5548 45.1193 31.8058L49.9535 31.952C49.1844 36.4826 46.9871 40.8123 43.3797 44.2103C34.5536 52.5408 20.582 52.1389 12.232 43.3151C10.4375 41.4151 9.04583 39.2777 8.05701 37.0124L1.31842 36.8114C2.56359 40.7209 4.68771 44.4112 7.69078 47.59C18.403 58.9165 36.3298 59.4281 47.6646 48.7226C54.1468 42.6026 57.095 34.1259 56.4174 25.8685V25.905ZM26.5698 17.3736C30.0307 16.8438 33.6747 17.9399 36.2566 20.6802C40.4316 25.0829 40.2301 32.0616 35.8171 36.2268C34.7184 37.2682 33.4732 38.0172 32.1365 38.5287C32.1182 38.5287 32.0816 38.5287 32.0633 38.547C31.7886 38.6566 31.4956 38.7296 31.2209 38.821C31.0928 38.8575 30.9829 38.8758 30.8547 38.9123C30.6533 38.9671 30.4519 39.0037 30.2504 39.0402C30.049 39.0768 29.8293 39.1133 29.6278 39.1316C29.4814 39.1316 29.3532 39.1681 29.2067 39.1864C28.9503 39.2046 28.6757 39.2229 28.4193 39.2229C28.3094 39.2229 28.2179 39.2229 28.108 39.2229C27.8333 39.2229 27.5587 39.2046 27.284 39.1681C27.1924 39.1681 27.1009 39.1681 27.0093 39.1498C26.753 39.1133 26.4966 39.0768 26.2402 39.0219C26.1304 39.0037 26.0205 38.9854 25.9106 38.9671C25.7092 38.9306 25.5078 38.8575 25.3064 38.8027C25.1599 38.7662 24.9951 38.7296 24.8486 38.6748C24.7387 38.6383 24.6288 38.5835 24.519 38.547C24.2809 38.4556 24.0429 38.3825 23.8048 38.2729C22.5047 37.7066 21.2778 36.8662 20.2341 35.7701C17.3775 32.7375 16.5718 28.4992 17.7804 24.8089C19.0988 21.0638 22.4498 18.1774 26.5515 17.3918L26.5698 17.3736Z" fill="white"/>
<path d="M62.332 35.3313H68.3565C68.4114 37.0668 70.1327 38.3273 72.3667 38.3273C74.7289 38.3273 76.2304 37.1764 76.2304 35.4409C76.2304 33.2304 73.8682 32.7371 71.4511 32.116C66.4338 30.8554 62.8631 28.7728 62.8814 23.9133C62.8814 19.3279 67.0381 15.7655 72.4949 15.7838C77.9517 15.802 82.09 19.401 82.09 24.1326L76.0656 24.0777C76.0656 22.2874 74.3809 21.2826 72.4949 21.2826C70.5722 21.2826 68.9241 22.2509 68.9241 23.8768C68.9241 25.8498 71.2314 26.3431 73.6485 26.9642C77.2192 27.8776 82.145 29.0834 82.1267 35.3495C82.1267 40.0628 77.677 43.881 72.2751 43.8627C66.5803 43.8627 62.332 39.9898 62.3503 35.3313H62.332Z" fill="white"/>
<path d="M84.9649 29.869C84.9649 22.0135 91.3556 15.8569 99.1562 15.8569C106.975 15.8569 113.329 22.0318 113.329 29.8873C113.329 37.5419 106.939 43.8994 99.1379 43.8994C91.319 43.8994 84.9649 37.5236 84.9649 29.869ZM107.36 29.8873C107.36 24.7355 103.697 21.5385 99.1746 21.5385C94.6883 21.5385 91.0626 24.7172 91.0626 29.869C91.0626 35.0208 94.6699 38.1995 99.1562 38.2178C103.697 38.2178 107.36 34.8564 107.36 29.8873Z" fill="white"/>
<path d="M117.138 32.8287V16.5513H123.144V33.1758C123.126 36.5007 125.342 38.291 128.583 38.291C131.824 38.291 133.948 36.318 133.948 33.194V16.5695H140.046V32.8652C140.027 39.4237 135.193 43.936 128.583 43.936C121.972 43.936 117.156 39.3871 117.156 32.8469L117.138 32.8287Z" fill="white"/>
<path d="M145.832 9.06104H151.82L151.783 43.2235H145.795L145.832 9.06104Z" fill="white"/>
<path d="M87.2355 60.9443H87.1623V64.5797H86.4481V49.0879H87.1623V56.0483H87.2355C88.1877 53.7829 90.2203 52.157 92.967 52.157C96.5377 52.157 99.376 55.0069 99.376 58.5511C99.376 62.0952 96.5194 64.9634 92.9487 64.9451C90.4034 64.9451 88.1511 63.4836 87.2172 60.9443H87.2355ZM98.7168 58.5328C98.7168 55.3541 96.1532 52.8512 92.967 52.8512C89.7808 52.8512 87.3088 55.354 87.3088 58.5145C87.3088 61.675 89.8357 64.1961 92.967 64.1961C96.1349 64.1961 98.7168 61.6567 98.7168 58.5328Z" fill="white"/>
<path d="M101.775 52.5041H109.026V53.2166H102.471V64.598H101.756V52.4858L101.775 52.5041Z" fill="white"/>
<path d="M109.246 58.5875C109.246 55.0434 112.139 52.23 115.691 52.23C119.244 52.23 122.119 55.0616 122.119 58.6058C122.119 62.1499 119.226 64.9633 115.673 64.9633C112.121 64.9633 109.246 62.0585 109.246 58.5875ZM121.405 58.5875C121.405 55.4087 118.841 52.9242 115.691 52.9242C112.542 52.9242 109.96 55.4087 109.96 58.5692C109.96 61.6384 112.524 64.2325 115.673 64.2325C118.823 64.2325 121.405 61.6384 121.405 58.5875Z" fill="white"/>
<path d="M124.518 49.0513H125.232V57.7472H128.967L132.3 52.5406H133.106L129.773 57.7472H133.472V64.6527H132.758V58.4596H125.232V64.6345H124.518V49.0513Z" fill="white"/>
<path d="M135.23 58.5329C135.23 54.9888 138.123 52.2119 141.675 52.2119C145.228 52.2119 148.103 54.9888 148.103 58.5329V58.7704H135.944C136.072 61.803 138.581 64.251 141.657 64.251C143.964 64.251 145.96 62.8808 146.876 60.8895H147.645C146.693 63.2827 144.385 64.9635 141.639 64.9635C138.086 64.9635 135.211 62.077 135.211 58.5329H135.23ZM147.37 58.0762C147.15 55.1532 144.66 52.9244 141.675 52.9244C138.672 52.9244 136.182 55.1349 135.962 58.0579H147.37V58.0762Z" fill="white"/>
<path d="M150.501 52.5588H157.753V53.2713H151.197V64.6527H150.483V52.5405L150.501 52.5588Z" fill="white"/>
<path d="M158.485 61.6569H159.199C159.199 62.9905 160.646 64.3059 162.752 64.3059C164.729 64.3059 166.304 63.1184 166.304 61.6752C166.304 59.7204 164.656 59.2089 162.752 58.7522C160.261 58.1493 158.705 57.382 158.723 55.4456C158.742 53.5091 160.664 52.2485 162.825 52.2485C164.986 52.2485 166.908 53.6552 166.908 55.4456H166.194C166.194 54.0389 164.693 52.961 162.825 52.961C161.122 52.961 159.419 53.9293 159.419 55.4456C159.419 57.1445 161.104 57.583 162.917 58.058C164.821 58.5695 167 59.0628 167 61.6752C167 63.5203 165.096 65.0183 162.733 65.0183C160.115 65.0183 158.467 63.3742 158.467 61.6752L158.485 61.6569Z" fill="white"/>
</g>
<defs>
<clipPath id="clip0_2_87">
<rect width="167" height="65" fill="white"/>
</clipPath>
</defs>
</svg>
