<svg width="34" height="35" viewBox="0 0 34 35" fill="none" xmlns="http://www.w3.org/2000/svg">
<rect x="0.5" y="1" width="33" height="33" rx="16.5" stroke="#96A0B5" stroke-dasharray="4 4"/>
<g clip-path="url(#clip0_78_5570)">
<path d="M20.2074 18.8889C20.0337 18.8021 19.1769 18.382 19.0173 18.3246C18.8576 18.2665 18.7416 18.2378 18.6255 18.4114C18.5094 18.5843 18.1753 18.9757 18.0734 19.0913C17.9721 19.2068 17.8701 19.2208 17.6963 19.134C17.1829 18.9305 16.709 18.6396 16.2959 18.2742C15.9149 17.9236 15.5883 17.5187 15.3267 17.0727C15.2254 16.8991 15.3161 16.8053 15.4033 16.7191C15.4814 16.6414 15.5778 16.5168 15.6643 16.4153C15.7359 16.3276 15.7947 16.2303 15.8387 16.1261C15.8619 16.0782 15.8727 16.0254 15.8701 15.9723C15.8675 15.9192 15.8517 15.8676 15.824 15.8222C15.7803 15.7354 15.4322 14.8819 15.2873 14.5347C15.1459 14.1972 15.0024 14.2427 14.8948 14.2371C14.7935 14.2322 14.6775 14.2308 14.5614 14.2308C14.4731 14.2332 14.3863 14.2539 14.3064 14.2913C14.2265 14.3288 14.1553 14.3823 14.0972 14.4485C13.9002 14.6342 13.7443 14.8586 13.6393 15.1075C13.5343 15.3565 13.4826 15.6244 13.4873 15.8944C13.5438 16.5485 13.791 17.1719 14.1985 17.6881C14.9454 18.8028 15.9707 19.705 17.1737 20.306C17.4982 20.4448 17.8297 20.5668 18.1669 20.6715C18.5223 20.7789 18.8981 20.8022 19.2642 20.7394C19.5066 20.6905 19.7363 20.5921 19.9386 20.4504C20.1409 20.3087 20.3114 20.1267 20.4395 19.916C20.5538 19.6569 20.589 19.3701 20.5408 19.0913C20.4979 19.0184 20.3818 18.9757 20.2074 18.8889ZM21.9602 12.5322C20.7644 11.3422 19.175 10.6253 17.4877 10.5149C15.8005 10.4046 14.1304 10.9083 12.7885 11.9324C11.4466 12.9564 10.5243 14.431 10.1932 16.0816C9.86216 17.7321 10.145 19.4462 10.9889 20.9047L10 24.4999L13.6955 23.5358C14.7177 24.0898 15.8629 24.3801 17.0267 24.3802H17.0295C18.4082 24.3795 19.7558 23.9721 20.9019 23.2093C22.0481 22.4466 22.9414 21.3629 23.469 20.095C23.9967 18.8271 24.135 17.432 23.8664 16.0859C23.5979 14.7398 22.9345 13.5032 21.9602 12.5322V12.5322ZM20.1082 22.3267C19.1855 22.9024 18.1186 23.2079 17.0295 23.2081H17.0267C15.9892 23.2081 14.9708 22.9302 14.0782 22.4037L13.8665 22.279L11.6733 22.8518L12.2585 20.7233L12.1214 20.5049C11.5126 19.5385 11.2054 18.4142 11.2386 17.2741C11.2718 16.134 11.6438 15.0293 12.3077 14.0996C12.9716 13.17 13.8975 12.4572 14.9684 12.0514C16.0393 11.6455 17.207 11.5649 18.3239 11.8197C19.4408 12.0744 20.4567 12.6532 21.2432 13.4826C22.0297 14.3121 22.5514 15.3551 22.7424 16.4798C22.9334 17.6044 22.785 18.7602 22.3162 19.8009C21.8473 20.8416 21.0789 21.7206 20.1082 22.3267Z" fill="#96A0B5"/>
</g>
<defs>
<clipPath id="clip0_78_5570">
<rect width="14" height="14" fill="white" transform="translate(10 10.5)"/>
</clipPath>
</defs>
</svg>
